PathFileType	3	(X/Y/Z)	D:\VICON_DB\Goncalves\Pilot01\09-03-2026\bw_sq_120_02.trc
DataRate	CameraRate	NumFrames	NumMarkers	Units	OrigDataRate	OrigDataStartFrame	OrigNumFrames
200.0	200.0	12	34	mm	200.0	394	787	
Frame#	Time	LASI			RASI			LPSI			RPSI			LTHI			LTHAP			LTHAD			LKNE			LKNM			LTIB			LTIAP			LTIAD			LANK			LMED			LHEE			LTOE			LFMH			LSMH			LVMH			RTHI			RTHAP			RTHAD			RKNE			RKNM			RTIB			RTIAP			RTIAD			RANK			RMED			RHEE			RTOE			RFMH			RSMH			RVMH			
		X1	Y1	Z1	X2	Y2	Z2	X3	Y3	Z3	X4	Y4	Z4	X5	Y5	Z5	X6	Y6	Z6	X7	Y7	Z7	X8	Y8	Z8	X9	Y9	Z9	X10	Y10	Z10	X11	Y11	Z11	X12	Y12	Z12	X13	Y13	Z13	X14	Y14	Z14	X15	Y15	Z15	X16	Y16	Z16	X17	Y17	Z17	X18	Y18	Z18	X19	Y19	Z19	X20	Y20	Z20	X21	Y21	Z21	X22	Y22	Z22	X23	Y23	Z23	X24	Y24	Z24	X25	Y25	Z25	X26	Y26	Z26	X27	Y27	Z27	X28	Y28	Z28	X29	Y29	Z29	X30	Y30	Z30	X31	Y31	Z31	X32	Y32	Z32	X33	Y33	Z33	X34	Y34	Z34	
394	1.965	266.9115	485.70383	-1091.9741	274.62741	498.41745	-1355.7637				453.00949	569.13422	-1249.6123	274.31543	502.03705	-1026.7468	316.39417	502.66779	-1033.4703	249.517	464.47379	-959.67975	118.81988	402.55643	-887.89502				177.67636	240.21956	-886.79437	68.382812	284.00827	-910.72388	148.29689	200.47723	-912.18726	280.26248	67.960152	-948.88226				312.82614	71.162483	-1006.6817	201.8736	70.34185	-953.00293	145.1382	46.111328	-972.22174				171.33473	26.684477	-896.32959	219.34402	459.59732	-1459.8695	290.01291	511.74026	-1397.1943	224.97456	504.35175	-1392.0924	97.40097	401.03583	-1488.1449				122.18802	242.62099	-1500.1552	45.389793	268.41483	-1460.4866	99.646957	202.41203	-1451.1415	271.08325	63.655636	-1452.4707				300.25488	65.969727	-1401.8601	181.52795	68.001396	-1448.5502	130.5535	49.04697	-1433.7632				156.94078	20.140301	-1502.9843
395	1.97	266.99515	485.43655	-1092.0493	274.70511	498.10202	-1355.8596				453.13065	568.61719	-1249.7495	274.45755	501.80078	-1026.8292	316.52133	502.35812	-1033.5664	249.66072	464.30164	-959.72449	118.94542	402.55994	-887.82831				177.74068	240.22025	-886.73883	68.454247	284.04651	-910.60571	148.35045	200.49625	-912.13483	280.26993	67.952896	-948.88281				312.82224	71.152328	-1006.6865	201.87257	70.345505	-952.99335	145.13522	46.121372	-972.2019				171.34259	26.683884	-896.32397	219.44592	459.34387	-1460.0043	290.1326	511.42703	-1397.2896	225.09671	504.11362	-1392.234	97.441292	400.94339	-1488.332				122.19027	242.58315	-1500.2903	45.378506	268.39285	-1460.6515	99.638527	202.38892	-1451.2606	271.08081	63.643074	-1452.4779				300.24408	65.976089	-1401.8572	181.524	68.001022	-1448.5703	130.55138	49.048328	-1433.7806				156.93948	20.130892	-1502.9913
396	1.975	267.07346	485.18384	-1092.1259	274.78079	497.80099	-1355.9545				453.24844	568.11426	-1249.8906	274.59323	501.57465	-1026.9124	316.64435	502.06314	-1033.6635	249.79655	464.13464	-959.77271	119.06475	402.56351	-887.76959				177.80013	240.22108	-886.68799	68.521828	284.08371	-910.49664	148.39999	200.51543	-912.08795	280.27652	67.946594	-948.88489				312.81778	71.143288	-1006.6934	201.86998	70.349243	-952.98645	145.13184	46.131264	-972.18341				171.35019	26.684549	-896.31915	219.53795	459.10104	-1460.1447	290.24295	511.13052	-1397.3896	225.20724	503.88675	-1392.3821	97.474998	400.85406	-1488.5226				122.18946	242.5457	-1500.4305	45.368294	268.37061	-1460.8171	99.626137	202.36755	-1451.3824	271.0773	63.629932	-1452.4862				300.23251	65.98317	-1401.8553	181.51956	68.00074	-1448.5914	130.54955	49.049961	-1433.7985				156.93748	20.120306	-1502.999
397	1.98	267.14648	484.94601	-1092.2034	274.85532	497.51382	-1356.045				453.36465	567.62976	-1250.0338	274.72269	501.35898	-1026.9955	316.7645	501.78342	-1033.7612	249.9243	463.97241	-959.82501	119.17665	402.56689	-887.72113				177.85414	240.2225	-886.64392	68.584419	284.11942	-910.39905	148.44514	200.53477	-912.04816	280.28223	67.941353	-948.88885				312.81314	71.135254	-1006.7025	201.86615	70.352859	-952.98248	145.12816	46.140877	-972.16644				171.35753	26.686487	-896.31531	219.61946	458.86987	-1460.2885	290.34344	510.85114	-1397.4933	225.30589	503.67111	-1392.5343	97.501633	400.76776	-1488.7126				122.18559	242.50856	-1500.5732	45.359203	268.34808	-1460.98	99.610329	202.34789	-1451.5044	271.07285	63.616371	-1452.4949				300.22034	65.990784	-1401.8545	181.51488	68.000473	-1448.6133	130.54816	49.051716	-1433.816				156.93494	20.108765	-1503.0074
398	1.985	267.21436	484.72311	-1092.2812	274.92969	497.23972	-1356.1283				453.48083	567.16791	-1250.1776	274.84598	501.1543	-1027.079	316.88278	501.51956	-1033.8596	250.04375	463.81494	-959.88226	119.28006	402.56967	-887.685				177.90251	240.22501	-886.6084	68.640976	284.15317	-910.31519	148.48567	200.55431	-912.01648	280.2872	67.937279	-948.89459				312.80832	71.128052	-1006.7134	201.86131	70.356209	-952.98126	145.1243	46.15004	-972.15131				171.36462	26.689621	-896.31256	219.69031	458.65076	-1460.4333	290.43375	510.58954	-1397.5992	225.39275	503.46686	-1392.6882	97.521034	400.68439	-1488.8989				122.17889	242.4718	-1500.7152	45.3512	268.3255	-1461.1377	99.591759	202.32956	-1451.624	271.06757	63.602535	-1452.5038				300.20786	65.998772	-1401.8549	181.51009	68.000092	-1448.6355	130.54736	49.053429	-1433.8335				156.93188	20.0965	-1503.016
399	1.99	267.27679	484.51511	-1092.3591	275.00476	496.97791	-1356.2019				453.59784	566.73279	-1250.3204	274.96313	500.96088	-1027.1632	316.99994	501.27216	-1033.9586	250.1548	463.66214	-959.94513	119.37416	402.57184	-887.6629				177.94519	240.22928	-886.58319	68.690674	284.18448	-910.24695	148.52155	200.57408	-911.99365	280.29135	67.934494	-948.90228				312.80353	71.121407	-1006.7259	201.85555	70.359123	-952.98291	145.12033	46.158581	-972.13824				171.37146	26.693804	-896.31097	219.75058	458.44379	-1460.5769	290.51367	510.34601	-1397.7061	225.46794	503.2739	-1392.842	97.533264	400.60367	-1489.0774				122.16981	242.43578	-1500.8538	45.344124	268.30298	-1461.2877	99.571068	202.31206	-1451.7396	271.06158	63.588566	-1452.5128				300.19522	66.006905	-1401.8562	181.50537	67.999451	-1448.6576	130.54729	49.054951	-1433.8499				156.92847	20.08374	-1503.0247
400	1.995	267.33383	484.32196	-1092.4373	275.08142	496.7276	-1356.2628				453.71609	566.32703	-1250.4612	275.07422	500.77902	-1027.2485	317.11642	501.0416	-1034.0586	250.25737	463.51447	-960.0144	119.45832	402.57324	-887.65649				177.98239	240.23602	-886.5697	68.732841	284.21313	-910.19574	148.55289	200.59418	-911.98053	280.29434	67.933243	-948.9118				312.7988	71.115067	-1006.7397	201.84892	70.361526	-952.9873	145.11638	46.166325	-972.12738				171.37801	26.698872	-896.31055	219.80064	458.24863	-1460.7159	290.58328	510.12033	-1397.8126	225.53189	503.09259	-1392.9937	97.538544	400.52563	-1489.2458				122.15884	242.40117	-1500.9867	45.337635	268.28067	-1461.4285	99.548759	202.29501	-1451.8495	271.05515	63.574581	-1452.522				300.18268	66.014984	-1401.858	181.50075	67.998444	-1448.6798	130.54791	49.056141	-1433.8651				156.92461	20.070698	-1503.0336
401	2	267.38574	484.14359	-1092.5159	275.16049	496.48788	-1356.3088				453.83533	565.95276	-1250.5992	275.17929	500.60892	-1027.3354	317.23236	500.82828	-1034.1593	250.35146	463.37234	-960.09082	119.53214	402.57401	-887.66705				178.01434	240.24606	-886.56891	68.767128	284.23889	-910.16266	148.57999	200.6147	-911.97723	280.29602	67.933723	-948.92291				312.79428	71.108749	-1006.7546	201.84148	70.363327	-952.9942	145.11243	46.17308	-972.1189				171.38423	26.704657	-896.31152	219.84106	458.065	-1460.8479	290.64301	509.91238	-1397.9178	225.58508	502.923	-1393.1415	97.537178	400.45041	-1489.4026				122.14649	242.36868	-1501.1119	45.331188	268.25858	-1461.5586	99.525124	202.27823	-1451.9523	271.04822	63.56068	-1452.5308				300.17032	66.022743	-1401.8607	181.49619	67.997063	-1448.7015	130.54906	49.0569	-1433.8793				156.9203	20.057556	-1503.0424
402	2.005	267.43301	483.97995	-1092.5951	275.24277	496.25821	-1356.338				453.9549	565.61096	-1250.7345	275.27863	500.45074	-1027.4248	317.34772	500.6326	-1034.2617	250.43709	463.23645	-960.17487	119.59552	402.57443	-887.69525				178.04155	240.26013	-886.58167	68.793457	284.26199	-910.14819	148.60324	200.63591	-911.98395	280.2963	67.936096	-948.93591				312.78986	71.102211	-1006.7704	201.83327	70.364532	-953.00385	145.10858	46.178738	-972.11292				171.39006	26.711014	-896.31372	219.87236	457.89264	-1460.9709	290.69366	509.72159	-1398.0219	225.6282	502.76535	-1393.2839	97.529427	400.37845	-1489.5466				122.13323	242.33904	-1501.2284	45.324043	268.23663	-1461.6771	99.500374	202.2617	-1452.0472	271.04105	63.546932	-1452.5389				300.15833	66.030014	-1401.8634	181.49156	67.995407	-1448.7229	130.55049	49.05711	-1433.8923				156.9155	20.044462	-1503.0509
403	2.01	267.47607	483.83096	-1092.6754	275.32883	496.03821	-1356.3494				454.0737	565.30164	-1250.8672	275.37222	500.30463	-1027.5176	317.46216	500.45471	-1034.3656	250.51433	463.10757	-960.26709	119.64853	402.57483	-887.7417				178.06454	240.27901	-886.60846	68.812019	284.28281	-910.1524	148.62312	200.65804	-912.00079	280.29523	67.940392	-948.95044				312.78574	71.095245	-1006.7867	201.82448	70.365166	-953.01587	145.10483	46.183228	-972.10931				171.3954	26.717871	-896.31726	219.89514	457.73135	-1461.084	290.73657	509.54706	-1398.1241	225.66194	502.61993	-1393.42	97.515602	400.31049	-1489.6783				122.11945	242.31287	-1501.3351	45.315357	268.21484	-1461.7842	99.474709	202.24559	-1452.1338	271.03363	63.533386	-1452.5469				300.14673	66.036575	-1401.8666	181.48668	67.99369	-1448.7439	130.55179	49.056736	-1433.9048				156.91019	20.031551	-1503.0594
404	2.015	267.51556	483.69669	-1092.7574	275.41873	495.82812	-1356.3424				454.19058	565.02466	-1250.9977	275.46017	500.17102	-1027.6138	317.57529	500.29486	-1034.4717	250.58334	462.98676	-960.36774	119.69151	402.57574	-887.80634				178.08389	240.30321	-886.64941	68.823296	284.30157	-910.17493	148.64012	200.68146	-912.02722	280.29285	67.946602	-948.96667				312.78189	71.087708	-1006.8038	201.81549	70.365349	-953.03003	145.10118	46.186573	-972.10822				171.40025	26.725229	-896.32214	219.90997	457.58142	-1461.187	290.77322	509.38815	-1398.2252	225.68712	502.48706	-1393.5492	97.496101	400.24707	-1489.7983				122.10552	242.29062	-1501.4313	45.304386	268.19315	-1461.8798	99.44838	202.23013	-1452.2119	271.02615	63.520088	-1452.5541				300.13562	66.04232	-1401.8696	181.48137	67.992111	-1448.7648	130.55266	49.055771	-1433.9165				156.90433	20.018917	-1503.068
405	2.02	267.55225	483.5773	-1092.8414	275.51199	495.62897	-1356.3186				454.30457	564.77979	-1251.1262	275.54248	500.05014	-1027.7145	317.68652	500.15335	-1034.5796	250.64444	462.875	-960.47675	119.72497	402.57764	-887.88904				178.10025	240.33313	-886.70428	68.827858	284.31897	-910.21539	148.65469	200.70651	-912.06317	280.28955	67.954582	-948.98468				312.77841	71.079544	-1006.821	201.80693	70.365273	-953.04614	145.09761	46.18885	-972.1095				171.40443	26.733152	-896.32837	219.9173	457.4433	-1461.2805	290.80508	509.24414	-1398.3257	225.70447	502.36719	-1393.671	97.471397	400.18854	-1489.9064				122.0918	242.27254	-1501.5165	45.290676	268.17166	-1461.9645	99.421738	202.21555	-1452.2812	271.01859	63.507065	-1452.561				300.12497	66.047195	-1401.8729	181.47548	67.99086	-1448.7858	130.55286	49.054256	-1433.928				156.89792	20.006617	-1503.0762
